#!OML:ASF F:\VICON\USERDATA\INSTALL\rory3\rory3.ASF
:FULLY-SPECIFIED
:DEGREES
4614
root -0.815973 18.1476 -3.8188 1256.38 60.1849 175.361
lowerback 9.51362 3.34803 1.48568
upperback 1.97989 4.64199 -1.12354
thorax -3.05028 2.33044 -2.546
lowerneck -13.5122 4.12039 -6.56377
upperneck 46.7294 15.2203 0.860369
head 20.2468 6.37375 5.13919
rclavicle -6.01324e-015 1.37161e-014
rhumerus -33.9914 -14.6552 -78.6072
rradius 40.1051
rwrist 2.57381
rhand -16.5069 3.76392
rfingers 7.12502
rthumb 9.71111 -25.9922
lclavicle -6.01324e-015 1.37161e-014
lhumerus -40.3257 9.12118 77.918
lradius 39.8041
lwrist -5.57956
lhand -17.9028 26.8888
lfingers 7.12502
lthumb 8.36409 56.7032
rfemur -4.34637 -8.33551 28.3725
rtibia 27.8275
rfoot -10.077 2.01863
rtoes 5.11903
lfemur -18.4876 -8.50578 -12.754
ltibia 33.226
lfoot -5.59621 -0.622539
ltoes -12.8359
4615
root -0.881597 18.1495 -3.76316 1256.31 59.5813 175.448
lowerback 9.46398 3.2545 1.33642
upperback 2.0232 4.50644 -1.05555
thorax -3.002 2.26602 -2.37227
lowerneck -13.4855 4.09498 -6.53649
upperneck 46.7215 15.1987 0.829598
head 20.2439 6.37358 5.11611
rclavicle -1.13755e-013 5.56597e-015
rhumerus -34.3218 -14.9298 -78.5188
rradius 40.0801
rwrist 2.64449
rhand -16.8116 3.22417
rfingers 7.12502
rthumb 9.41713 -26.5455
lclavicle -1.13755e-013 5.56597e-015
lhumerus -40.1903 8.90275 77.998
lradius 39.8521
lwrist -5.33795
lhand -17.8863 27.1699
lfingers 7.12502
lthumb 8.38009 56.9836
rfemur -4.58644 -8.82481 28.4435
rtibia 27.9332
rfoot -10.0789 1.70948
rtoes 4.35019
lfemur -18.0543 -8.49079 -12.7445
ltibia 34.8473
lfoot -5.8372 0.56681
ltoes -11.7913
4616
root -0.950143 18.1464 -3.70663 1255.93 58.9783 175.15
lowerback 9.43928 3.16313 0.972123
upperback 2.03438 4.35167 -1.00746
thorax -3.01504 2.19196 -2.10058
lowerneck -13.4466 4.06841 -6.62585
upperneck 46.7042 15.1983 0.819099
head 20.2151 6.36693 5.12206
rclavicle 1.77664e-014 5.96354e-015
rhumerus -34.7693 -14.7502 -78.4222
rradius 40.1015
rwrist 2.257
rhand -16.9374 3.4638
rfingers 7.12502
rthumb 9.29575 -26.3113
lclavicle 1.77664e-014 5.96354e-015
lhumerus -40.0588 8.84185 78.0899
lradius 39.8779
lwrist -5.08973
lhand -17.9951 27.494
lfingers 7.12502
lthumb 8.27508 57.3119
rfemur -4.87672 -9.27119 28.3108
rtibia 28.0488
rfoot -10.1463 1.36232
rtoes 2.69904
lfemur -17.642 -8.37914 -12.9456
ltibia 36.4519
lfoot -5.96066 1.472
ltoes -10.4943
4617
root -1.0191 18.1457 -3.64797 1255.95 58.4269 175.269
lowerback 9.38001 3.06485 0.898666
upperback 2.02484 4.21479 -0.952875
thorax -3.00718 2.12425 -1.9844
lowerneck -13.3783 4.05182 -6.67955
upperneck 46.6677 15.1932 0.804979
head 20.1678 6.36649 5.11469
rclavicle -1.40044e-013 2.14687e-014
rhumerus -35.3057 -14.948 -78.1632
rradius 40.0137
rwrist 2.12707
rhand -16.5621 4.50345
rfingers 7.12502
rthumb 9.6579 -25.2551
lclavicle -1.40044e-013 2.14687e-014
lhumerus -39.903 8.90072 78.0434
lradius 39.9012
lwrist -5.12667
lhand -18.1268 27.3843
lfingers 7.12502
lthumb 8.14794 57.2072
rfemur -5.21375 -9.7456 28.408
rtibia 28.1452
rfoot -10.1558 1.23996
rtoes 1.34851
lfemur -17.222 -8.21644 -12.8643
ltibia 38.0305
lfoot -5.80436 2.1324
ltoes -8.38562
4618
root -1.08509 18.1483 -3.59245 1256.16 57.9238 175.567
lowerback 9.22919 2.98847 0.972302
upperback 2.03133 4.12014 -0.919519
thorax -2.91801 2.07763 -1.97038
lowerneck -13.3165 4.04894 -6.57258
upperneck 46.5748 15.1527 0.736976
head 20.1082 6.37193 5.04417
rclavicle -1.635e-014 -1.98785e-015
rhumerus -35.7298 -15.5455 -77.9228
rradius 39.8165
rwrist 2.25749
rhand -16.2593 4.96651
rfingers 7.12502
rthumb 9.94998 -24.7783
lclavicle -1.635e-014 -1.98785e-015
lhumerus -39.6654 8.79178 77.9957
lradius 39.8876
lwrist -5.18932
lhand -18.16 27.3718
lfingers 7.12502
lthumb 8.11594 57.196
rfemur -5.53008 -9.99996 28.5933
rtibia 28.1979
rfoot -10.0714 1.19864
rtoes 2.24606
lfemur -16.7787 -7.9168 -12.7218
ltibia 39.5619
lfoot -5.57069 2.70034
ltoes -6.79049
4619
root -1.14897 18.1553 -3.54237 1256.25 57.3602 175.812
lowerback 9.11854 2.91073 1.06606
upperback 2.06557 4.02697 -0.888516
thorax -2.82076 2.03258 -1.97207
lowerneck -13.2766 4.01315 -6.63324
upperneck 46.4861 15.0084 0.85701
head 20.0119 6.33321 5.0702
rclavicle 4.57453e-014 -3.77691e-015
rhumerus -36.1268 -15.8218 -77.8107
rradius 39.6911
rwrist 2.26761
rhand -16.2692 4.85393
rfingers 7.12502
rthumb 9.94043 -24.8914
lclavicle 4.57453e-014 -3.77691e-015
lhumerus -39.4141 8.55816 78.0534
lradius 39.8592
lwrist -5.1112
lhand -18.3476 27.5162
lfingers 7.12502
lthumb 7.93485 57.3473
rfemur -5.77345 -10.3261 28.6929
rtibia 28.3541
rfoot -10.2447 1.13702
rtoes 6.25263
lfemur -16.1964 -7.60228 -12.6537
ltibia 40.9331
lfoot -5.23466 2.98065
ltoes -2.90327
4620
root -1.21103 18.161 -3.49338 1255.93 56.654 175.661
lowerback 9.09846 2.78612 0.943013
upperback 2.10553 3.85175 -0.912195
thorax -2.78161 1.94806 -1.90618
lowerneck -13.2815 3.96536 -6.66143
upperneck 46.5221 14.9082 0.970596
head 20.0207 6.30903 5.11667
rclavicle 8.5875e-014 -2.44505e-014
rhumerus -36.6021 -15.7097 -77.7842
rradius 39.6528
rwrist 1.96393
rhand -16.1697 5.10095
rfingers 7.12502
rthumb 10.0364 -24.6397
lclavicle 8.5875e-014 -2.44505e-014
lhumerus -39.1604 8.46084 78.0284
lradius 39.8147
lwrist -5.00041
lhand -18.3219 27.4782
lfingers 7.12502
lthumb 7.95963 57.3084
rfemur -5.92907 -11.0033 28.5332
rtibia 28.491
rfoot -10.5305 1.10262
rtoes 8.60623
lfemur -15.4502 -7.41279 -12.8498
ltibia 42.1428
lfoot -4.74841 3.23012
ltoes -0.996257
